/* XPM */
static char *result[] = {
/* columns rows colors chars-per-pixel */
"50 50 188 2 ",
"   c #9E531D",
".  c #A1551D",
"X  c #9F5623",
"o  c #98582E",
"O  c #995B33",
"+  c #A15722",
"@  c #A35A24",
"#  c #AB542E",
"$  c #A45D2A",
"%  c #A95A2E",
"&  c #AD5630",
"*  c #A35E31",
"=  c #AC5D32",
"-  c #B15737",
";  c #B5543B",
":  c #B45A3B",
">  c #B8593F",
",  c #9E633D",
"<  c #A66025",
"1  c #A96127",
"2  c #A6612C",
"3  c #A9642D",
"4  c #AD6A2E",
"5  c #B16D2D",
"6  c #B6762F",
"7  c #A46232",
"8  c #A96532",
"9  c #AD6B35",
"0  c #A4673B",
"q  c #AE673B",
"w  c #A76A3E",
"e  c #AE6D3A",
"r  c #B06236",
"t  c #B06F35",
"y  c #B5653C",
"u  c #B26E3B",
"i  c #BA6C3E",
"p  c #AF703C",
"a  c #B27236",
"s  c #BA7C36",
"d  c #B3743C",
"f  c #B6793E",
"g  c #B97D3D",
"h  c #925F42",
"j  c #B75740",
"k  c #BA5C44",
"l  c #BB5F48",
"z  c #936045",
"x  c #9E6844",
"c  c #97654B",
"v  c #98664A",
"b  c #9B6A4B",
"n  c #9D6D52",
"m  c #A36944",
"M  c #AC6B44",
"N  c #A26E4B",
"B  c #B76444",
"V  c #B96344",
"C  c #B56B44",
"Z  c #BB6B45",
"A  c #B56548",
"S  c #BD654C",
"D  c #B56F4D",
"F  c #BC6B4B",
"G  c #AD7343",
"H  c #A5714D",
"J  c #AA7248",
"K  c #B37542",
"L  c #B97444",
"P  c #B67A42",
"I  c #B97D44",
"U  c #B47549",
"Y  c #BC734B",
"T  c #B57B4B",
"R  c #BA7D4A",
"E  c #B76E54",
"W  c #BF6C52",
"Q  c #A17154",
"!  c #AB7155",
"~  c #AE7B55",
"^  c #A4765A",
"/  c #A67A5E",
"(  c #BD7352",
")  c #B47F51",
"_  c #BD7D51",
"`  c #B07B5D",
"'  c #BF7D5A",
"]  c #A77B60",
"[  c #C17047",
"{  c #C3754B",
"}  c #C27C4D",
"|  c #C16E54",
" . c #C17555",
".. c #C07954",
"X. c #C3745B",
"o. c #C17C5B",
"O. c #C67F64",
"+. c #BD813B",
"@. c #C0863C",
"#. c #C38A3E",
"$. c #CA933D",
"%. c #BC8245",
"&. c #BF8847",
"*. c #B4834F",
"=. c #BC834C",
"-. c #BF884E",
";. c #AF825E",
":. c #B48252",
">. c #BC8552",
",. c #BF8953",
"<. c #B3825A",
"1. c #BC8659",
"2. c #BE8A5B",
"3. c #AD8266",
"4. c #B58562",
"5. c #B28966",
"6. c #BD8F63",
"7. c #B48B6B",
"8. c #BE946D",
"9. c #BD9675",
"0. c #BE9878",
"q. c #C28643",
"w. c #C38B44",
"e. c #C98A47",
"r. c #C4854A",
"t. c #C28B4C",
"y. c #CA8B48",
"u. c #C79044",
"i. c #CA9444",
"p. c #CE9945",
"a. c #C6914B",
"s. c #C9954D",
"d. c #CE9B4B",
"f. c #D09E4C",
"g. c #C08353",
"h. c #C18C54",
"j. c #C3845D",
"k. c #C28D5B",
"l. c #C69252",
"z. c #C99653",
"x. c #CE9C53",
"c. c #C4925C",
"v. c #C8965E",
"b. c #CD9C5B",
"n. c #D19F51",
"m. c #D19E5D",
"M. c #D1A04F",
"N. c #CFA055",
"B. c #D1A154",
"V. c #D2A45C",
"C. c #C58062",
"Z. c #C28B61",
"A. c #C7876A",
"S. c #CA8B6B",
"D. c #C49362",
"F. c #C89664",
"G. c #C79965",
"H. c #CA9A63",
"J. c #C5976C",
"K. c #C8956C",
"L. c #C79A6A",
"P. c #C99C6C",
"I. c #C99674",
"U. c #CA9D73",
"Y. c #CD9B79",
"T. c #CEA163",
"R. c #CEA16A",
"E. c #D1A462",
"W. c #D5A963",
"Q. c #D1A56B",
"!. c #D6AC6C",
"~. c #D8AF6E",
"^. c #CCA275",
"/. c #CDA57A",
"(. c #CDA97D",
"). c #D2A573",
"_. c #D2AA71",
"`. c #D5A579",
"'. c #D3AC7B",
"]. c #D7B177",
"[. c #D9B274",
"{. c #D7B17A",
"}. c #D9B47B",
"|. c #C8A480",
" X c #CDAA81",
".X c #D6B180",
"XX c #DBB984",
"oX c #D4B188",
/* pixels */
"a a y k  .S.Y.' 8 e K I I P p 3 $ e P &.u.$.a.,.,.-.=.Y S S ( ( q @ 3 K >.-.,.~ x b 5.(._.N.i.#.+.f ",
"a d i > | S.Y.' 9 e P =.%.I p 3 $ e P &.i.$.a.h.,.-.R Y S S ( ( q @ 3 K >.>.,.T b b 5. X_.N.$.#.g f ",
"s i y > | A.I.) $ 8 P >.=.%.p 8 2 p T t.u.$.y.h.,.,.=.Y k B F D 8 @ 8 P ,.,.,.) n n 5. X_.N.i.w.%.P ",
"P f y > W A.I.T $ 3 T ,.-.R f 9 3 p R &.i.i.a.h.,.,.>.Z j j B C = @ 8 P k.,.k.) H Q 5. X_.N.p.w.%.%.",
"t d y : F j.H.g.K K T >.=.I P e 9 p p P q.e.r.R _ =.r.Y F Z C C u q K T >.h.t.,.<.;.6.^.G.z.i.&.%.%.",
"3 3 9 y L h.m.v.D.2.-.I I P P P K 9 3 9 L } [ F F R =.R _ _ R I >.2.>.=.I w.u.z.G.P.6.,.-.-.&.%.f f ",
"$ $ 8 e g w.f.E.'.P.h.P f f I =.=.9 X % B W S k V L %.h.k.h.=.I c.P.D.=.g @.$.f.!.].v.+.f *.=.%.a p ",
"X @ 8 d g w.p.T.'.P.-.f P P I =.=.9 X $ C ( F l V L I h.k.h.=.I ,.L.c.=.f @.$.B.!.].c.f f %.=.P f d ",
"X X 8 e g #.p.T.(.P.-.f P I =.-.=.9 @ = D  .W l V L %.=.2.,.I f >.G.k.R f @.$.B.~.{.c.g f P %.I f g ",
"7 3 9 p %.a.x.b.G.c.&.%.&.w.&.=.=.f 8 e L Y F B Z d K %.-.=.=.I =.=.=.P g q.w.s.T.T.c.=.P f d d f d ",
"p p d d =.c.R.c.,.t.a.s.i.i.w.%.P R P R L L C u u u d P =.=.=.=.f 9 p K %.&.t.t.-.,.2.6.>.p 2 t 6 d ",
"P P f d -.P./.k.P &.s.B.M.p.#.&.P =.h.>.I f d d e q e p f P >.>.d . 2 f >.>.>.=.g f ,.U.1.e @ 3 a d ",
"f f f d -.L./.c.g %.s.B.M.p.$.+.g =.,.>.I a d p e e 9 d f P T P q @ 2 f -.=.=.=.P P h.U.2.9 X 3 f f ",
"a a d f -.P./.c.f &.z.B.M.$.#.+.f =.h.-.g a d e e e 9 p d f P K 8 @ 3 f =.-.=.%.f f h.J.2.q . 3 a f ",
"u u i L R j.D.2.-.h.s.s.i.@.s f f %.h.t.&.f f d K f g I =.I P K p e d P *.P K K R =.2.c.>.p 3 t f f ",
"V V Z Y Y K K >.G.D.h.&.s 5 5 9 p +.u.a.t.-.R P I q.y.a.z.,.P e T >.1.R P a 8 e >.6.,.R I P f P f f ",
"k l W | B 8 2 >.(.R.,.f 9 @ 2 8 e +.$.i.z.c.-.I &.u.f.N.V.l.P w >.J.D.=.d 3 @ 9 1.J.>.f f %.-.%.P P ",
"j l S | Z = $ :./.P.-.d 4 $ 2 8 e +.$.i.s.c.t.g &.u.d.x.N.,.d 8 T k.k.I a 2 . 8 1.J.>.f f %.=.I f d ",
"j l S W A = $ :.^.P.-.t 9 3 8 8 9 +.$.d.z.c.-.P +.a.p.d.z.&.8 $ K 1.=.P t 1 . 9 1.J.1.f f I } g f f ",
": > A E D M G 1.L.D.*.f 9 9 8 9 p +.u.y.&.%.=.%.t.y.s.a.&.P e 9 K =.=.P f 9 1 d ,.D.k.>.I I i a 9 9 ",
"= = M ! ` 4.6.2.2.>.=.f f d p d f %.h.&.d 9 P ,.,.l.-.%.d p P T R %.*.R R P f %.y.z.b.F.j.{ : r @ < ",
"$ $ m Q 3.0.|.J.=.=.T %.P f f g %.=.,.P 8 @ f 2.c.2.=.f 2 9 *.2.>.P I &.,.,.t.t.i.p.m.`.S.| ; #     ",
"@ @ , n ] 9.(.6.%.P =.=.%.g P g f =.,.P 8 @ p ,.2.,.=.p $ 8 K =.I f I =.,.-.,.t.i.p.m.).S.| ; & @ @ ",
"  X O v / 9.(.6.K g =.,.*.%.g f f *.,.P 3 @ t =.-.,.=.p $ 3 e P P d f %.h.h.,.t.u.p.m.).S.{ ; - $ $ ",
"% 3 w H <.8.U.J.h.h.l.l.-.P K g g =.=.I d t +.t.a.,.=.P 9 e K Y T R R =.=.=.-.t.s.n.m.K.j...B u 9 9 ",
"d d T <.6.D.L.P.Q.Q.N.z.-.g f %.%.I I %.-.a.a.s.a.-.-.=.>._ Y ( ' Z.1.R K K P r.b.P.v.h.h.g...%.f d ",
"=.=.,.D.c.c.c.^.XX}.W.d.w.g f %.%.P f &.z.E.N.d.i.t.-.2.D.j. .| O.K.6.U w u d >.P./.D.I %.h.2.-.I %.",
"P I >.h.,.-.-.R.XX[.V.d.w.I P %.=.I f =.z.V.B.p.i.&.=.,.k.j.| S ( C._ e 3 9 a -.L./.c.P I &.,.-.I I ",
"f P =.>.=.I %.H.}.[.B.p.w.%.I -.-.%.f %.s.N.x.p.w.&.I =.g...V k A ( K 8 @ 3 t =.L./.c.f P %.=.%.I I ",
"G G P R *.=.-.D._.T.s.#.g d P I =.I g %.&.w.a.a.a.r.R >.g.j.( [ Y Y u 8 2 4 9 P k.K.k.&.P g d p p G ",
"N N J G ) 2.G.G.H.h.%.a 9 3 9 f I I =.f a 4 g t.t.-.>.h.k.j.Z.Z.>.I p 9 8 8 9 p I >.k.D.*.t 2 , x x ",
"n b m m T D.U.D.2.P e 3 < @ 2 t P =.=.f <   9 ,.2.h.h.,.h.D.L.P.2.P f p e 9 8 9 d P ,.P.2.8   O O z ",
"c v , 7 K Z.U.D.=.K e 8 2 X 2 t f %.>.K $ . t =.2.,.,.=.=.>.k.c.>.P d e e e 7 e a f 1.U.1.9   O , h ",
"z z O X w 6.I.2.g d e e 2 X 2 t P P =.G 3 X e =.,.,.,.%.K I &.>.%.f d u p e p e p P ,.U.2.e X O z z ",
"x x m 8 K 2.L.D.,.*.f e t 5 a g &.I %.K 9 9 g t.t.g.R R R I R T =.=.R K f p s g &.,.2.D.,.p 7 0 , x ",
"J G T T >.k.D.P.^.J.>.f +.+.+.u.a.&.f f &.-.a.i.y.} ( o.o._ T P 1.G.2.=.P +.+.a.b.T.l.=.*.P P G G G ",
"%.%.>.k.k.h.c.P.oX/.2.I +.$.f.f.d.w.d %.a.V.B.p.y.{ W X.O.' U M 1.U.J.,.%.+.$.M.!.[.v.d f =.,.=.I g ",
"P P -.h.,.-.g.L. X^.,.g &.p.f.f.d.w.f +.l.b.n.p.y.{ W W  .E q 8 T J.c.=.g #.$.B.!.[.v.f f %.-.%.P f ",
"f g *.h.-.%.I c./.P.=.d +.s.f.M.d.w.a %.a.V.x.f.y.[ l S ( C * $ G k.2.%.g +.$.B.!.}.v.f f R =.=.f f ",
"9 t g t.h.h.h.D.P.k.=.i I w.y.u.w.%.f I t.l.z.s.r.Y A F ( Y C w T ,.>.=.%.&.i.d.T.R.v.>.R R L d a t ",
"3 4 g s.b.R.R.H.h.>.Y Z Z [ i u t f K P %.%.-.h.>.U C U R >.1.k.,.=.=.&.-.h.t.t.t.h.c.F.j.( y : % 2 ",
"@ 2 s d.V.{..XH.%.L F S l k : % $ e U P f f P >.) T K P I ,.L.U.k.%.R ,.h.h.,.=.I I j.`.S.| ; # + + ",
". @ s p.V.[.{.G.%.L Z | l j - % 2 9 K P p f K T U K K K K =.h.c.,.I I &.,.h.,.&.g f k.Y.A.W ; # + + ",
". . a $.B.!.'.c.I L Z F l > - % $ 9 K P f 9 d M K M u d d P =.-.I f I =.,.h.h.&.I f k.Y.A.W ; # @ X ",
"2 7 P a.b.H.P.D.,.r._ ( [ Z i a p p G J T P K K K I =.%.t.&.>.h.h.h.h.l.c.l.-.-.-.>.1.6.o.F B q 3 $ ",
"H H ;.6.2.2.,.D.U.K.k.r.r.r.e.e.&.P N H :.,.=.P =.t.z.b.H.H.c.D.H.P.Q.H.b.c.-.2.D.K.>.K K Y Y K d f ",
"] ] 3.7.3.J K 6. X/.c.,.t.d.f.B.N.*.b n ;.6.,.=.t.x.V.W.~.Q.H.D.^..X{.!.E.z.=.k.U./.>.3 9 P h.=.I I ",
"n Q / 3.~ M e 1.`.U.2.%.y.f.f.B.x.*.b H ;.1.:.%.r.z.n.E.Q.b.c.,.H._.W.V.d.t.I h.P.^.:.$ 3 K =.I P P ",
"c b n / H 8 3 ) ^.L.=.f w.i.f.B.N.*.b b :.1.*.P +.i.d.x.V.l.&.P h.V.V.x.i.@.a -.P.^._ $ $ p I P f f ",
"c c n ^ b o $ T U.L.=.f w.i.f.B.x.*.b b ~ ,.=.P &.a.d.x.b.a.%.f ,.V.x.d.$.@.a =.L.^.>.$ 2 e P P f d "
};
