/* XPM */
static char *_afb82f8be294f89debd691f6479097cHh7mMlHD0fo4Iu3Q[] = {
/* columns rows colors chars-per-pixel */
"50 50 45 1 ",
"  c None",
". c black",
"X c #010101",
"o c #020202",
"O c gray1",
"+ c #060606",
"@ c #0B0B0B",
"# c #0C0C0C",
"$ c gray6",
"% c #181818",
"& c gray10",
"* c #1B1B1B",
"= c #1D1D1D",
"- c #1E1E1E",
"; c #202020",
": c #222222",
"> c #232323",
", c gray14",
"< c #252525",
"1 c #272727",
"2 c gray17",
"3 c #2C2C2C",
"4 c #2F2F2F",
"5 c gray19",
"6 c gray20",
"7 c #343434",
"8 c gray21",
"9 c #373737",
"0 c #393939",
"q c #3C3C3C",
"w c gray24",
"e c #3E3E3E",
"r c #3F3F3F",
"t c gray26",
"y c gray28",
"u c #5A5A5A",
"i c gray40",
"p c DimGray",
"a c #6A6A6A",
"s c #747474",
"d c gray46",
"f c #818181",
"g c gray51",
"h c gray62",
"j c gray74",
/* pixels */
"    ...........................................   ",
"    ...........................................   ",
"    ...........................................   ",
"...;iiiiiiiiii%...-<<<<<<<<<<<<<<<<<<<<<<<<<<<;...",
"...<jjjjjjjjjj3...7tttttttttttttttttttttttttttr...",
"...<jjjjjjjjjj3...7tttttttttttttttttttttttttttr...",
"...<jjjjjjjjjj3...2777777rttttttttttttttttttttr...",
"...<jjjjjjjjjj3.........#7ttttttttttttttttttttr...",
"...<jjjjjjjjjj3.........#7ttttttttttttttttttttr...",
"...<jjjjjjjjjj3...-<<<<<<5550tttttttttttttttttr...",
"...<jjjjjjjjjj3..+fhhhhhf-..%tttttttttttttttttr...",
"...<jjjjjjjjjj3..+fhhhhhf-..%tttttttttttttttttr...",
"...<jjjjjjjjjj3..+fhhhhhf-..%tttttttttttttttttr...",
"...<jjjjjjjjjj3..+fhhhhhf-..@%%%%%%<ttttttttttr...",
"...<jjjjjjjjjj3..+fhhhhhf-.........#ttttttttttr...",
"...<jjjjjjjjjj3..+fhhhhhf-.........#ttttttttttr...",
"...<jjjjjjjjjj3..+fhhhhhf-..-yyyyyyr%%%3ttttttr...",
"...<jjjjjjjjjj3..+fhhhhhf-..5ddddddu...;ttttttr...",
"...<jjjjjjjjjj3..+fhhhhhf-..5ddddddu...;ttttttr...",
"...<jjjjjjjjjj3..+fhhhhhf-..5ddddddu...;ttttttr...",
"...<jjjjjjjjjj3..+fhhhhhf-..5ddddddu..............",
"...<jjjjjjjjjj3..+fhhhhhf-..5ddddddu..............",
"...<jjjjjjjjjj3..+fhhhhhf-..5ddddddu..............",
"...<jjjjjjjjjj3..+fhhhhhf-..5ddddddu...rdddddda...",
"...<jjjjjjjjjj3..+fhhhhhf-..5ddddddu...rdddddda...",
"...<jjjjjjjjjj3..+fhhhhhf-..5ddddddu...rdddddda...",
"...<jjjjjjjjjj3..+fhhhhhf-..5ddddddu...rdddddda...",
"...<jjjjjjjjjj3..+fhhhhhf-..5ddddddu...rdddddda...",
"...<jjjjjjjjjj3..+fhhhhhf-..5ddddddu...rdddddda...",
"...<jjjjjjjjjj3..+fhhhhhf-..5ddddddu...rdddddda...",
"...<jjjjjjjjjj3..+fhhhhhf-..5ddddddu...rdddddda...",
"...<jjjjjjjjjj3..+fhhhhhf-..5ddddddu...rdddddda...",
"...<jjjjjjjjjj3..+fhhhhhf-..5ddddddu...rdddddda...",
"...<jjjjjjjjjj3..+fhhhhhf-..5ddddddu...rdddddda...",
"...<jjjjjjjjjj3..+fhhhhhf-..5ddddddu...rdddddda...",
"...<jjjjjjjjjj3..+fhhhhhf-..5ddddddu...rdddddda...",
"...<jjjjjjjjjj3..+fhhhhhf-..5ddddddu...rdddddda...",
"...<jjjjjjjjjj3..+fhhhhhf-..5ddddddu...rdddddda...",
"...<jjjjjjjjjj3..+fhhhhhf-..5ddddddu...rdddddda...",
"...<jjjjjjjjjj3..+fhhhhhf-..5ddddddu...rdddddda...",
"...<jjjjjjjjjj3..+fhhhhhf-..5ddddddu...rdddddda...",
"...<jjjjjjjjjj3..+fhhhhhf-..5ddddddu...rdddddda...",
"...<jjjjjjjjjj3..+fhhhhhf-..5ddddddu...rdddddda...",
"...<jjjjjjjjjj3..+fhhhhhf-..5ddddddu...rdddddda...",
"...<jjjjjjjjjj3..+fhhhhhf-..5ddddddu...rdddddda...",
"...<jjjjjjjjjj3..+fhhhhhf-..5ddddddu...rdddddda...",
"...<jjjjjjjjjj3..+fhhhhhf-..5ddddddu...rdddddda...",
"    ...........................................   ",
"    ...........................................   ",
"    ...........................................   "
};
