/* XPM */
static char *fc75d7632b374257ab9dc3fb2d1f1468t3DZ6yZLyP58zvqA[] = {
/* columns rows colors chars-per-pixel */
"50 50 228 2 ",
"   c #020202",
".  c #0A0504",
"X  c #0D0904",
"o  c #04050A",
"O  c #0B0A0A",
"+  c #130A04",
"@  c #160D08",
"#  c #1B130B",
"$  c #191409",
"%  c #090B15",
"&  c #0B0D1C",
"*  c #09101B",
"=  c #151414",
"-  c #1B1B1B",
";  c #261307",
":  c #2E1604",
">  c #3A1C08",
",  c #2B1812",
"<  c #362F0C",
"1  c #2C2617",
"2  c #382717",
"3  c #0D1224",
"4  c #0E1229",
"5  c #14172A",
"6  c #0F1531",
"7  c #161A36",
"8  c #141A3B",
"9  c #251C22",
"0  c #262427",
"q  c #2A2A2A",
"w  c #362C2D",
"e  c #3D3626",
"r  c #323131",
"t  c #3A3635",
"y  c #3C3C3C",
"u  c #671B19",
"i  c #4C2509",
"p  c #54250D",
"a  c #52290A",
"s  c #572B11",
"d  c #4B3111",
"f  c #573B19",
"g  c #7B360D",
"h  c #683213",
"j  c #76391A",
"k  c #4D332E",
"l  c #5A3B27",
"z  c #443B36",
"x  c #4F4C0E",
"c  c #584E12",
"v  c #6C5316",
"b  c #746619",
"n  c #5A4C35",
"m  c #674833",
"M  c #6F5135",
"N  c #6F613D",
"B  c #151D44",
"V  c #182346",
"C  c #1B234A",
"Z  c #1C295A",
"A  c #333747",
"S  c #212A58",
"D  c #1D2C65",
"F  c #1B326E",
"G  c #232D66",
"H  c #263266",
"J  c #26316B",
"K  c #253372",
"L  c #253976",
"P  c #25367C",
"I  c #383A75",
"U  c #3A4B7C",
"Y  c #434343",
"T  c #4B4642",
"R  c #4D4D4D",
"E  c #534F4E",
"W  c #545454",
"Q  c #5C5B5B",
"!  c #635644",
"~  c #6D5753",
"^  c #736956",
"/  c #50526C",
"(  c #605467",
")  c #696867",
"_  c #75726C",
"`  c #727272",
"'  c #7E7971",
"]  c #7C7C7C",
"[  c #890D11",
"{  c #9D3A0F",
"}  c #8A3911",
"|  c #C91419",
" . c #874516",
".. c #914A12",
"X. c #984618",
"o. c #AC510C",
"O. c #A64C15",
"+. c #B04611",
"@. c #B25A18",
"#. c #91791A",
"$. c #87572D",
"%. c #AA5D28",
"&. c #8F6E31",
"*. c #B06F24",
"=. c #AA7C3B",
"-. c #C24D1C",
";. c #C65B18",
":. c #DA5414",
">. c #DA5917",
",. c #CD6B17",
"<. c #D86715",
"1. c #E5650F",
"2. c #E86B0D",
"3. c #ED750A",
"4. c #E76B16",
"5. c #ED731A",
"6. c #EC7419",
"7. c #F0771B",
"8. c #CB5A2C",
"9. c #CB7128",
"0. c #EA6925",
"q. c #E97727",
"w. c #B25B41",
"e. c #8B6C50",
"r. c #AC775A",
"t. c #8A7860",
"y. c #807C6E",
"u. c #987A68",
"i. c #72A72A",
"p. c #76AB2E",
"a. c #79AD2F",
"s. c #7BAF30",
"d. c #7DB032",
"f. c #958F1A",
"g. c #AE8E1E",
"h. c #B7A81E",
"j. c #AF9124",
"k. c #83B335",
"l. c #88B637",
"z. c #8AB739",
"x. c #8DB93A",
"c. c #93BC3D",
"v. c #D5861C",
"b. c #ED841D",
"n. c #F08C1F",
"m. c #ED911E",
"M. c #C19C22",
"N. c #DB912D",
"B. c #EB8520",
"V. c #F28724",
"C. c #EA9621",
"Z. c #F29827",
"A. c #E69B3C",
"S. c #F29F3D",
"D. c #C3A423",
"F. c #D2B428",
"G. c #F0A226",
"H. c #F2AA29",
"J. c #ECB02D",
"K. c #F5A834",
"L. c #F4AC3E",
"P. c #F5B836",
"I. c #CCC420",
"U. c #CBC228",
"Y. c #DAC82A",
"T. c #E6C626",
"R. c #E6CB29",
"E. c #F4C42E",
"W. c #F6C637",
"Q. c #F5D433",
"!. c #F6DB34",
"~. c #F7D43C",
"^. c #F9DC3A",
"/. c #EFE426",
"(. c #EFE52C",
"). c #F0E625",
"_. c #F0E229",
"`. c #EFE531",
"'. c #F6E035",
"]. c #F8E038",
"[. c #BC9155",
"{. c #97BE40",
"}. c #99BE40",
"|. c #B2916C",
" X c #ED9043",
".X c #ED9D43",
"XX c #F6B249",
"oX c #CF936B",
"OX c #D0AE78",
"+X c #E7A678",
"@X c #F5AC74",
"#X c #9DC143",
"$X c #A4C547",
"%X c #F3C646",
"&X c #F8D173",
"*X c #263681",
"=X c #223D8A",
"-X c #203F90",
";X c #23408C",
":X c #284895",
">X c #3859A4",
",X c #535A87",
"<X c #60628B",
"1X c #717A93",
"2X c #4364AB",
"3X c #838383",
"4X c #8D8D8D",
"5X c #8F908D",
"6X c #939393",
"7X c #9C9C9C",
"8X c #B6A690",
"9X c #9599A2",
"0X c #A2A2A2",
"qX c #A9A6A4",
"wX c #ABABAB",
"eX c #B4B0A9",
"rX c #B9B9B8",
"tX c #D5B991",
"yX c #EAB587",
"uX c #F5B588",
"iX c #DEC29A",
"pX c #F6C697",
"aX c #F9D391",
"sX c #EDCBA4",
"dX c #F6D7AB",
"fX c #FAD8A9",
"gX c #C3C3C4",
"hX c #F9E4C7",
/* pixels */
"s.s.s.a.a.p.p.p.p.p.p.a.s.d.d.d.s.a.p.a.s.d.d.s.s.0X  3Xa.a.p.a.3X  6Xs.d.x.#X}.l.s.a.a.p.p.p.p.a.a.",
"s.s.s.a.a.p.a.p.p.p.p.a.s.d.d.d.d.y q a.s.d.d.gXe $   3Xs.a.a.e $   6Xs.d.z.{.c.k.s.a.a.p.p.p.s.d.k.",
"a.a.p.p.p.s.s.s.a.p.p.a.s.d.k.l.l.y X < ^ gX' < g.j.+ ) gX^ < M.j.  6Xd.d.gXgXl.k.a.a.a.a.p.s.l.x.c.",
"s.a.p.i.p.s.d.d.s.a.a.a.s.k.l.z.z.y 1 T.g.< f.).R.D.+ $ < h./.T.j.  ` gXn <   R a.a.s.s.s.a.d.x.#X$X",
"l.k.s.i.p.s.d.d.s.a.gXwXwXwXwXwXwX0 1 `.).).).).).Y.c f./.).).).U.x x x D.T.X R a.a.s.s.s.a.s.z.}.#X",
"}.c.l.a.p.a.s.a.a.a.6XQ   $ c c c c b (.).).).).).).).).).).).).).).).)./.).+ q ] ] ] ] 3Xa.p.s.k.l.",
"#Xc.z.s.p.a.a.a.p.a.s.d.3Xy.v g.)././.).).).).).).).).).).).).).).)././.).).f.#.b , . ] 5Xp.p.p.a.p.",
"z.z.k.a.a.s.s.a.p.p.p.s.R N #.h./././.).).).).).).).).).)././.).).)././.)./.T.j.< 5XrXd.d.a.p.a.a.a.",
"a.a.a.p.a.s.d.a.p.p.p.a.wX5Xd #.T.R./.).).).).).).).).).).).).).).).).)./.).J.#.X eXs.s.s.s.s.s.d.d.",
"p.p.p.p.a.s.d.s.p.p.p.a.Y n g.j.F.F.F._./.).).).).).).).).).).).)._././.Y.F.F.M.#.! W a.s.s.s.d.d.d.",
"d.d.s.a.s.d.d.s.a.a.a.s.  < M.b # - e D.D.I.I.I.I.I.I.I.I.I.I.I.F.D.D.D.Q U - 1 z eXd.a.a.a.s.d.d.d.",
"d.d.s.a.s.d.d.s.a.a.s.s.q q q -   B F % * - - - - O     = O . - - - = % D P o R l.k.d.a.a.a.s.d.d.d.",
"s.s.s.a.s.d.d.s.a.a.s.s.s.s.a.]   B G P ,X0X0X0X` = 0   = 0 R 7X0XwX<XP P P o Y k.d.d.a.a.a.s.s.s.s.",
"a.a.a.a.a.s.s.a.p.p.a.s.s.gXO - e e w S U ] 6X0XW 0 Y = - 7X0X0X7X3X/ Z / / e 1 O rXs.s.s.s.s.s.s.s.",
"p.p.p.a.a.s.s.a.p.p.a.s.s.gX  N aX@X[.  q ` 1X1X) Y y Y R Q Q 1X1X` r   [.@XaX|.  rXs.s.s.s.s.d.s.s.",
"p.p.p.p.p.s.s.s.p.p.p.a.a.gX  1 N M M t.8Xd.9XV ~ t.t.t.t.t.t.A / a.eXt.M m N ^ 4Xp.s.s.s.d.d.d.d.d.",
"p.p.p.p.p.s.s.s.p.p.a.s.a.a.7XQ     1 uXpXhXtX|.tXdXdXdXdXdXdX|.8XhXsXuX2     - Q Q Q s.s.d.d.d.d.d.",
"p.p.p.p.a.d.k.s.a.p.s.s.s.gXW r   0 z m e.+XyXdXdXdXdXdXdXdXdXdXpX+Xe.m t r .   + v &.E W s.s.d.d.d.",
"p.p.a.s.s.k.k.d.s.s.s.d.t r S 5   R 3XR z 2 e.+XtXiXiXiXiXiXiX+X|.2 t Y W Q . > O.N.S., ; s.s.s.d.d.",
"p.p.s.s.s.k.k.s.s.a.W = S G H 8   q Q 0X3XW r @ $ # # # # $ = @ 9 W W W 3X6X% > -.;.>.A.A.O ` s.d.d.",
"a.a.s.s.s.s.s.s.7Xo 8 H -X=XH B o o 5 7X7X0X] E ,.3.3.3.3.$.E W ) 0X7X7Xq o P Z   { >.A..X. Q s.d.d.",
"a.a.s.s.s.s.a.O 3 G P -X-X-X-XP G G S 5 A ) ) ) 9.3.3.3.3.3.3.^ ) ) A 7 G P *XG 4 h } @ + | u o d.d.",
"p.p.a.a.a.0X6Xo % V D *X-X-X*XL H H H H Z 5 % . o.3.3.3.2.o...# o 6 Z P *X*X*X*XP k s . . | u   s.s.",
"p.p.p.p.p.O X f f f n ~ ;X=XH H H H H H J K 8   o.3.3.1.:.} i X & *X*X*X*X*X*X*X*Xw.0.s p [ j W a.a.",
"p.p.p.rX3Xd f L.L.L.L.A.S Z C C C C C C S K 8   o.3.3.1.:.2.3.: & *X*X*X*X*X*XI ( 8.0.0.0.  y 3Xa.a.",
"p.p.p.`   %XW.L.L.L.L.L.$.c   % 8 8 8 8 8 7 &   O.1.1.1.1.2.3.: & *X*X*X*X*X*X( 0.0.0.j j j i   a.a.",
"a.a.W n j.^.^.~.W.L.L.L.XXA.X.h 4 4 7 K G C 4   { :.:.1.3.3.3.: & *X*X*X*X*X6 9 p p p X.X. X9.X.! W ",
"Q W   c ^.].].^.~.L.L.L.XX.X4.;...2 % J K K 8   { :.:.1.3.3.3.: o 6 6 6 6 6   : X.X.X. X Xq.%.s X   ",
"  @ X.*.XX^.^.P.P.L.L.L.XX.X4.O.a r Z K K K 8   { :.:.1.3.3.3.: % C C C % o   @ i p s l l s M r.#   ",
"  ; 4.C.~.^.^.~.~.~.K.7.7.;.; @   B K K K K 8   { :.:.:.>.>.>.; & K K K G D o     e.oXoXoXtXyX@X,   ",
"O , 4.C.^.^.^.^.^.^.%X.X; +       B K K K K 8   { :.:.:.:.p + . & J J J 3 o . .   O @ oX+XaXu.@ O O ",
"x.l.z M F.%X~.~.~.~.XX.XO.}   + : @ % S Z Z 5   g +.+.+.+.>   B B o o o ; : ,.O.: : : # # T y r p.p.",
"k.k.4X! m =.=.=.=.=.*.X.@ ; i  .<. .> o o o o   X + + + +     o @ i i i @.<.m.m.v.<.<.@ . 4XrXp.p.p.",
"d.d.  l +X! ! ! ! ! m l   > 4.6.V.C.v.a a a a a a a c c c d a a g 4.b.C.Z.Z.!.Q.W.n.5.h a   ` p.a.a.",
"p.a.  l @XpXpXfXfXpXoX$.  > 5.V.K.W.Q.G.G.G.G.G.G.H.!.!.'.J.G.G.G.G.E.'.'.'.'.Q.W.Z.V.5.6.h ~ 4Xa.a.",
"p.p.4X~ m +X@XuXoXm z 8   > 5.Z.W.Q.'.'.'.'.E.G.G.G.G.g.b b b N.G.G.G.G.P.W.W.W.'.P.K.H.H.6. .  a.a.",
"p.p.p.a.0Xn n l z C D J o > 5.G.'.'.'.!.E.Z.b.4.v s s ^ 0X0X0Xm s s o.4.b.V.K.P.!.Q.W.!.!.Z...  a.a.",
"s.s.a.p.p.p.rX  3 L V = @.9.E.Q.'.'.!.P.Z.5...: X 0 gXd.s.s.a.a.`   @ : ;.6.K.K.P.Q.'.m.b.7. .  s.s.",
"d.d.s.p.p.p.a.  3 L 7 X q.n.!.'.'.W.K.7.5.5.g   6Xd.d.d.d.d.s.s.4X  g ;.4.6.Q.!.!.Z.b.5.4.; +   s.s.",
"d.d.s.p.p.a.a.  3 K 7 + q.n.'.W.P.K.G.6.O.; ' a.s.s.s.s.d.d.s.d.4X   .5.5.5.B.B.B.7.5.> ;   Q a.s.s.",
"d.s.s.a.a.s.s.s.0X% h <.5.n.Q.W.K.J.J.o.$.Y 0Xa.a.a.a.a.s.s.d.d.d.d.) ; 9 0 0 0 0 0 0 3 5 7XgXa.s.s.",
"s.s.d.s.s.s.s.s.rX  g 5.V.Z.P.K.Z.9.O.E 4Xp.p.p.p.p.p.a.s.d.d.d.d.d.)   F ;X;X;X;X:X:X:X:Xk _ rXs.s.",
"a.s.l.x.l.d.a.a.s.Y j @.P.P.E.N.@.d r k.s.p.p.a.p.p.p.s.k.l.k.k.d.d.6XY H F F P :X>X>X>X>XuXr.k qXrX",
"p.s.z.}.c.k.p.p.s.3Xq X %.@.@.h .   r a.a.a.a.a.a.p.a.k.z.z.l.k.d.a.s.s.) y y A U L F ,X<XfXpX@X1 . ",
"p.s.l.c.x.d.p.p.rX  3 V V V V V V * r a.a.a.a.a.a.p.a.k.l.l.k.k.s.a.p.s.s.s.s.rX] 0   M ~ t.e.&.' ] ",
"p.a.s.k.k.d.a.W R D ;X>X>X>X:XF 6 ) rXa.s.s.s.s.a.a.s.d.d.d.s.a.a.p.p.a.a.a.a.a.s.gXwXwXwXwXwXwXd.d.",
"p.p.p.a.s.Y T r.|.OX4X2X2X>X:XZ   4Xs.a.s.s.s.s.s.s.s.s.a.a.a.a.p.p.p.p.p.p.a.a.s.k.z.c.#X#X{.z.d.s.",
"a.p.a.s.s.O # &X&XfXsXiX8Xu.3 Q gXz.k.k.s.a.s.s.s.s.s.s.a.a.a.a.p.p.p.p.p.p.a.a.a.d.x.}.c.c.x.k.s.s.",
"a.a.s.d.k.z.rX1 ! fXpXuX&X[.  ) #X}.x.l.s.p.a.d.d.s.s.s.s.s.s.s.p.i.i.p.p.a.a.p.p.s.x.#X}.z.d.s.s.s.",
"a.a.s.d.k.z.x.l.wX$ $ @ $ n c.#X$X#Xc.l.s.p.a.d.d.s.s.s.s.s.s.s.p.i.i.p.p.a.a.p.p.s.x.#X}.l.a.a.s.s."
};
