/* XPM */
static char *d28d5cded3154e4bb1e44e984c14d696EbGqWJyylKubICek[] = {
/* columns rows colors chars-per-pixel */
"50 50 31 1 ",
"  c #6FA629",
". c #70A62A",
"X c #76AB2D",
"o c #79AD2F",
"O c #7BAF30",
"+ c #7DB132",
"@ c #81B133",
"# c #82B234",
"$ c #84B335",
"% c #83B435",
"& c #85B536",
"* c #88B537",
"= c #8AB738",
"- c #8CB739",
"; c #8BB93A",
": c #8FB93B",
"> c #8EBA3C",
", c #91BA3B",
"< c #94BA3B",
"1 c #92BA3C",
"2 c #94BB3D",
"3 c #92BC3D",
"4 c #96BD3E",
"5 c #98BD3F",
"6 c #97BE40",
"7 c #98BE40",
"8 c #9DBF41",
"9 c #9BC043",
"0 c #9DC042",
"q c #9EC144",
"w c #A3C346",
/* pixels */
"o+O+XooOO@o+OOOo+OOOXXoXooooOOoOo+XX++oOXXXooo+oO+",
"XX++O+O++:XO+O0+O@o4#o##+.XX,++OOOXO+.OOOoO*+o$7%O",
"Oo1:oooO++O+#X.#OoXOOO++oXoX++OoOX,0o&++O+XOooOXoO",
"XoXXoo=#XO+Ooo+*+oOO++O+OXO&+o+#OO+OOoXoo=oOO+Oo#O",
".Xo.oXX+O*ooOOOO+%+X83O0o+O4$o+Oo+O+O+o+XXO*X#OO+X",
"X06XOOo+Xo.o+OOOo&OO&%+$++XoX+ooXO+Oo+o+OOoooOoooX",
"o3+OXO@+oOOo#O*XO+OOO&O+o&Ooo*o@Xo:%0o##OooO+=o+o+",
"o+o+o&*+:oXO@-1+O1++#1=%XOXOXXOoXo++O+OO++O+-0O=X+",
"OO#+++OoXooXOXXO++O+o+O+oO++ooOo+XO+++OOoo++++oX++",
"O+@*+++O4&XXXO=+*OO-+O,8O&oOOO+#-oO++&O+++wo+@oO+O",
"++oooX+o+OXOO+1++O+O.XXXOOoO1oXOXXXo+1&#X++o#++OX+",
"X++X+X+++.o+++XXOXooO.ooXXXO@oOXO@=X+++#oX+OOoO=+@",
"&o*OX1&&+O*OXXo-OoOoXOXXO&X+XXooO+oX$+#ooX&O1O**X@",
"X+XO+Oo++O+oXXXXO.:#oO+OOXX#XXOo+oOX,X4X=OXXOXoo+O",
"o+o+++o+X:+#@OXO#OXXoO+OXXX4OOXX$o+OoXXXOXoXoX++OX",
"ooooXo+:+&OoOO+&#XX=ooO+ooOXO+OXO+O=o+XooOo#%OXO&X",
"oX#++o+O+OX+o+oo+oX-+OXXOXXXoXoOO+ooo*O++&+&1Oo+Oo",
"oo$ooXOo+XO++OXOXOOOo:o,+:OX@XO+4&:+O@+2#OoXoX+OoX",
"o+XXo4oO@=XX3;O+3++O+&oo+O+O$X+ooO+oo++++++#XoO@oo",
"XXXOooOOoooO++++#++++oo>++XX+X@X4+#o+OO++O+Oo.+OoO",
"oX++%Xo+OX+oO&%+OOOOX++OOoXXXX@O&XO+OO+oOXXXo+oO+X",
"Oo@o@+o=Oo,ooOO+++&++#+OO+++oOO&OOXOoOXo*OOO9XO=OX",
"Xo@XoX+1XX+X-+@++ooOo=%OO&O++Xo@.Oo@@oXO-++OO.o+Oo",
"XXOOoXoo#+XO=X4#$%X#OO+oo+OXX.o&+2#oOX+X+O+oOoo++o",
"OXOXO+=#+o4ooXo++XXOOXOo=OO+OOX+oOoX+ooX1=XO1XOOo#",
"@+$XoOOoOo.XoXXOoooXXo*O++O++XOooX-+oo.oXXoXOO1OXO",
"XOoXoXO.X+Xoo2o,XOXXXooO+OOXXo .+oXXo=&5&O5XXXOOOO",
"@,OOO#oOOO+OO&O#XOOoOO#o$OO@ooO= X&o+oo++X#XXoO+++",
"oXXO+XoXoO+oooOOX++++++XOX+.XoOXXXXoOOOOOXXXoXOOO$",
"&%++oXXooX+oOXXO+OOoX+XX=ooOoOoOoOOOooO5+=XOoOXXXO",
"O+OXXoo*X@+7XOO:#*%+O@OoOoooO+X-o4++OoX@O&XXoOXOOO",
"OX+oXoX4XX+#&+o=+&+XoOoX+OXX$+oXXoo++Xo++oXOOXoooo",
"oo+OoOXX.oo71++O+OoXo1Ow+$#oO++o=Oo+O+oOOXOXX8,oOX",
"OXo+@Oo+XOoOOXO,@+&#X@+&OOO.XoOo@Xo+##O++XO+X+++;X",
"oX@ooo;O&=o7OoOOOOoOOo+XOoOoXo+ooXoO&&OO&$O&ooXO*X",
"oOOXOX&oOXXXoOO+O+O++o+oo+o+o+OOO+oOOOXooXO#o+XO<o",
"+%OoXOoXX+XooXXo++OO&1&2+++&+Xo@o9+O=Xooo++XOXXOXX",
"XO@oo+XooO+O@XoX,o@XO#+OOXo+OXXXo++++XOXoOoO=#Xo.X",
"3+,O2+O0O:+@=OX.XO=+++1o++o++O+o+#+++Xo@#+XO,o:X.X",
"+oOoOoX&+++oXX+XXXoOXoOo++Oo&XXXO*O+o+XOOoXX+OooXX",
"oX#=++o+OoO+ooOo=++oOOX+1*XX+=++O+OOO++XoXXXOoXoOX",
"OXXXOO@+OX+,XXXo,*+o5XXXXXXoo++O+++++oO+oXX&75+Oo,",
"oOOo++:q+XoXoXoo@+OOOXoXXXOX+#O++++OX+$&o+o++OO+OO",
"oo#=oOoOoOo*-OOoo=+X+X#X#==OO@#,O=+*oOOO#OOO#OoooO",
"X+#:ooXXXoXO=OOOo4oO++oXXoX+O+OOXoO.OOXoOXoXXoO+Xo",
"X+o+oOoXXoXOXXXXXooOOXXO+%+o+OoO+X*=&++Oo+X+OO+Oo+",
"X+OO++++ooo*OoOoOXO=+OOOooOXoooOXXoOXXXo*oX:oX:++o",
"oOo4oo.+5XoOXO+O+XO,OO&+ooO@oOXo1XooX&.XXoo*X++Ooo",
"o++Oo7+++Xo+O#+,OO=oOo+++ooO+OOoXOOXX+XO.@,;&X#*XO",
"ooOOX&OOoOOX++O+OXX.X=+++oXoOooOO+OOXoo+XOoO+o#OXX"
};
