/* XPM */
static char *f117a86398fb4336ed4873fb79c47e02diZ1bSNpEeuZYsn7[] = {
/* columns rows colors chars-per-pixel */
"50 50 195 2 ",
"   c None",
".  c #0F1D0F",
"X  c #1B1E13",
"o  c #141A0B",
"O  c #1E2215",
"+  c #172012",
"@  c #202417",
"#  c #222618",
"$  c #252C1B",
"%  c #222917",
"&  c #29311E",
"*  c #27301D",
"=  c #383934",
"-  c #2D3620",
";  c #7B7A72",
":  c #9E3B17",
">  c #AE3E0E",
",  c #AC3B07",
"<  c #AB3E17",
"1  c #A93F19",
"2  c #A33A16",
"3  c #E31619",
"4  c #E41C22",
"5  c #E3252B",
"6  c #E3292F",
"7  c #E52B32",
"8  c #E92E34",
"9  c #E7343D",
"0  c #A5411A",
"q  c #AC441B",
"w  c #AE491E",
"e  c #AF4116",
"r  c #B24415",
"t  c #B1461C",
"y  c #B3491E",
"u  c #B54B17",
"i  c #B44107",
"p  c #AD4D20",
"a  c #B34D21",
"s  c #B35323",
"d  c #BB5C27",
"f  c #BA5E29",
"g  c #BA5B32",
"h  c #B75836",
"j  c #BC642B",
"k  c #B4692E",
"l  c #B6672C",
"z  c #BD6F33",
"x  c #B86636",
"c  c #BE7034",
"v  c #AE622A",
"b  c #C26B2E",
"n  c #C1672C",
"m  c #C6732F",
"M  c #C26D35",
"N  c #C27335",
"B  c #CC7A34",
"V  c #C67736",
"C  c #D27E33",
"Z  c #E63D43",
"A  c #E7454A",
"S  c #E85A5E",
"D  c #CA794B",
"F  c #C57857",
"G  c #E95B60",
"H  c #EA6569",
"J  c #EC7B7D",
"K  c #EB7577",
"L  c #76AB2D",
"P  c #79AD2F",
"I  c #71A72A",
"U  c #7BAF30",
"Y  c #7DB132",
"T  c #82B334",
"R  c #89B537",
"E  c #8AB738",
"W  c #8DB83A",
"Q  c #93BB3C",
"!  c #99BE3F",
"~  c #F39500",
"^  c #F49901",
"/  c #F49C0C",
"(  c #F4A20F",
")  c #F5A707",
"_  c #F5A511",
"`  c #F6AA14",
"'  c #D58435",
"]  c #D48539",
"[  c #D6893B",
"{  c #D98D3D",
"}  c #DB903F",
"|  c #DA9E3F",
" . c #F6AE21",
".. c #98BE40",
"X. c #97BE40",
"o. c #B18D6E",
"O. c #D98E41",
"+. c #DC9241",
"@. c #DC9948",
"#. c #CC8452",
"$. c #D08E5E",
"%. c #D18B54",
"&. c #DFA649",
"*. c #E2AC4D",
"=. c #E1A448",
"-. c #E9B24E",
";. c #E2A956",
":. c #E6B352",
">. c #E9B552",
",. c #EBB956",
"<. c #D89767",
"1. c #DC9E74",
"2. c #CB906F",
"3. c #DDA076",
"4. c #DFA37A",
"5. c #EBBD63",
"6. c #E8B068",
"7. c #E0A67D",
"8. c #E2A87E",
"9. c #E5AA75",
"0. c #E8B57A",
"q. c #E2A365",
"w. c #9DC043",
"e. c #C5D77D",
"r. c #F0C46B",
"t. c #F5CD7A",
"y. c #EFC46D",
"u. c #A7A59E",
"i. c #D69D90",
"p. c #EF9C9C",
"a. c #EE9292",
"s. c #DFB39E",
"d. c #D8AB9E",
"f. c #E6AD84",
"g. c #E7B189",
"h. c #E9B38B",
"j. c #EBB68C",
"k. c #EEA09F",
"l. c #EDBA93",
"z. c #EAB791",
"x. c #F2BF94",
"c. c #DCB1A1",
"v. c #EFA1A1",
"b. c #F1ACAB",
"n. c #F0B0AE",
"m. c #F2B9B8",
"M. c #E2BDAD",
"N. c #C9DA84",
"B. c #CCDB88",
"V. c #F2C096",
"C. c #F9CA9D",
"Z. c #F6C79B",
"A. c #FAD79C",
"S. c #E9CC97",
"D. c #DAE59D",
"F. c #D4E195",
"G. c #E6E19A",
"H. c #FACCA1",
"J. c #FDDEA5",
"K. c #F8D5AB",
"L. c #E5C4B4",
"P. c #E7CABD",
"I. c #DFE8A3",
"U. c #E4E2A4",
"Y. c #E3EBAC",
"T. c #E1EAA6",
"R. c #FEE0A7",
"E. c #E5EDB2",
"W. c #E9F0BE",
"Q. c #E8CDC3",
"!. c #F3C9C6",
"~. c #EBD4CA",
"^. c #F6DFDB",
"/. c #EEDCD4",
"(. c #FDE8C8",
"). c #EDF3C9",
"_. c #EDF2C7",
"`. c #FDEBD4",
"'. c #F3E2DC",
"]. c #FDEEDB",
"[. c #F4EBDA",
"{. c #FEF0DE",
"}. c #F5EAE4",
"|. c #F7EEE9",
" X c #F8EDE9",
".X c #F8E7E4",
"XX c #FEF1E1",
"oX c #F7F1EC",
"OX c #F8F2ED",
"+X c #F8F2EE",
"@X c #F8F3EF",
"#X c #F8F1ED",
"$X c #F8F2EE",
"%X c #F9F4F0",
"&X c #EDE8E3",
/* pixels */
"P Y U Y L P P U U T P Y U U U P Y U U U L L P L P P P P U U P U P Y L L Y Y P U L L L P P P Y P U Y ",
"L L Y Y U Y U Y Y W L U Y U w.Y U T P !   7 7 7 7 5 5 5 8   Y U U U L U Y I U U U P U R Y P T ..T U ",
"U P Q W P P P U Y Y U Y T L I T U 7 7 7 7 Z J '.n.!.!.p.6 7 6 7 7 L Q w.P R Y Y U Y L U P P U L P U ",
"L P L L P P E T L U Y U P P   7 7 9  X+X+X+X+X+X+X+X+X+X+X+X+X X5 7 6 U U P L P P E P U U Y U P T U ",
"I L P I P L L Y U R P P   7 6 m.+X%XO O O X O O O O O X O O $ = u.&Xa.8 7   P Y L L U R L T U U Y L ",
"L w.X.L U U P Y L P I 8 6 m.+X+X+X; $ $ O X & $ O & & O & & # * & O +X+XK 8 7 Y U U P P P U P P P L ",
"P Q Y U L U T Y P   7 5 %X+X+X+X+X= # $ O @ # O # O O O X O O # @ X +X+X+X+X8 7 U P P U Y E P Y P Y ",
"P Y P Y P R R Y   8 H +X+X+X+X}.t # O # O O % O X - $ O & & O O O O +X+X+X+X+XZ 7 Y U Y W w.U E L Y ",
"U U T Y Y Y U   7 .X+X+X+X+X> y y # $ & O O & $ O % % O O O O O O @ q r +X+X+X+XA 6 Y Y Y Y P L Y Y ",
"U Y T R Y Y   7 m.+X+X+X}.q q t q O X O O O O X O # # X O O X O O O t q q +X+X+X+XH 6 P Y T P U Y U ",
"Y Y P P P L 7 !.+X+X+Xd.q y q w { O & & O $ & $ O O # O # O O O O O y 1 #.q oX+X+X+X5 7 T Y Y U L Y ",
"L Y Y L Y 7 5 +X+X+X~.t y t q [ +.X O O # O O # # O O O X @ O O O # ' J.J.J.e +X+X+X+X8 7 P U E Y T ",
"R P R U   7 +X+X+X}.q q q q 0 ] +.O X O O # X O O O O O O # # # O O [ 6.J.J.J.q +X+X+X@X5   R R L T ",
"L Y L U 6 |.+X+X+XM 1 q y q [ { 0 # O O O X # O O X O O O # @ O O O { { [ J.J.t q +X+X@X9 7 P P Y U ",
"P Y P 7 7 +X+X+Xe J.q q y ] j.<.F O O O O O # # # O # O # O # # # O : } +.{ q q q F +X+X+X7   Y U L ",
"P P P 7 oX+X+X~.J.$.q w N g.1.3.1.1.4.4.o.. O O O O X O O O # # O o @.0.{ { q q q t %X+X+XA 7 U R L ",
"P L   5 +X+XoXt q q q z j.j.3.4.1.1.1.7.z.h.2.O @ # # O # O O % {.XXXX{.{.{.' q y t r +X+X+X7 Y U P ",
"P P 6 k.+X+X'.R.q } B k j.4.3.4.4.f.1.1.g.h.g.+ O # O O # # [.XXXX{.{.{.{.{.{.{ a y y +X+X+X7 7 P L ",
"P Y 7 +X+X+Xr g d [ N f.z.1.4.1.f.g.4.1.g.g.f.g.+.{ +.+.V ].{.`.` ( A.XX{.XXXXB { q q Q.%X+Xb.7 P P ",
"L   7 +X+X+Xy y +.[ N j.H.C.4.4.l.x.4.3.j.4.1.j.+.m +.' +.XX) _ _ ^ (  .{.XXXX[ q [ q t +X+X+X6 P U ",
"P 7 5 +X@X+Xq y { [ c j.H.C.3.<.Z.C.1.1.g.7.4.Y.Y.U._.Y.XX(._ _ _ ^ ^ ` XXXXXXs { { q t %X%X+X7   L ",
"U 8 J +X+Xu t q { +.v j.C.Z.4.4.V.C.4.1.j.f.I.D.N._.e.Y.{.^ ( / ( ~ ~ _ {.{.`.p +.] q t +X+XoX8   L ",
"L 7 %X+X+X> 1 q +.{ k #.V.j.4.4.z.C.f.f.j.f.Y.B.Y._.Y.W.Y.G.~ ~ _ ( _ (.XX{.{ [ B { y q L.+X+XH 8 P ",
"L 7 }.+X+X> q q y { N z f.g.3.4.3.C.j.f.g.S.Y.E.W.e._.N.Y.B._ / ( / K.].XX;.+.{ { +.q y $.+X+Xa.6 P ",
"U 7 %X+X+Xt q w { j l k 8.g.j.7.4.C.j.g.g.Y.Y.D.Y.Y._.E.I.Y.{.(.`.{.].{.{ +.+.{ +.+.q q s.oXoXK 7 T ",
"T 5 +X+X+Xt y q [ q { c N g.g.4.8.1.1.1.g.Y.N.W.T.E.Y.F.Y.+.0.].`.K.+.' { { } { } { B q g +X+Xp.6 U ",
"L 6 ^.+X+Xu y j w q { V z N N 3.1.4.3.3.g.g.U.Y.Y.Y._.Y.I.G.[ +.O.{ { z +.{ j { ] +.s q i.+XoXG 7 U ",
"T 6 b.+X+Xg q a j w C k k f.4.4.4.7.3.3.h.g.g.D.Y.e.Y.F.N.-.*.+.j j { b ' { w { { +.y q Q.+X+XZ 6 Y ",
"P 7 S +X+XP.t t +.+.N c g.j.1.1.g.j.4.f.4.j.j.G.D.Y.U.Y.,.>.:.*.-.V b +.{ { ' } { { q q +X+X+X7   T ",
"R   6 +X+X+Xt q +.f z z g.g.4.1.g.g.3.3.1.j.f.7.g.+.-.*.*.,.| :.*.>.{ { N { { { q { y t +X+X+X8   U ",
"U Y 7 +X+X+Xt q } q c 8.C.Z.1.4.f.H.g.4.4.j.g.4.f.@.&.*.y.&.>.*.t.5.:.] [ { f +.[ q q t +X+X%X7 U U ",
"U L 7 +X+X+Xi y [ w N 1.K.C.1.1.g.C.V.j.g.g.g.4.8.q.{ >.*.5.>.y.=.y.,.5.{ { { { q q t Q.+X+Xm.6 P P ",
"P P 8 A @X+X+Xt +.q k N H.H.1.4.4.C.H.j.f.g.g.4.4.9.+.,.*.t.*.=.t.&.*.t.r.+.{ { q q q +X+X+X7   U L ",
"U L   7 +X+X+X< { q V k l.C.g.4.4.l.C.j.7.4.4.3.7.} +.+.>.*.*.,.+.-.>.*.>.{ 0 +.q q F +X+X%X7 Y E L ",
"P L T 7 K +X+XoXq { { N j.C.g.3.1.g.l.z.1.4.3.4.+.+.{ +.>.*.>.,.+.[ *.-.>.f q { q t +X+X+X8 7 U R L ",
"P U U   5 +X+X+Xa q q z v j.g.4.3.1.g.j.4.4.$.B +.+.+.{ { *.*.>.>.+.+.w q { [ t <.L.+X+X+X6 L U Q P ",
"Y T U P 7 K +X+X+Xt 1 s k f.g.f.3.3.j.f.+.p [ { { { b { { @.>.=.b q +.0 a +.b t , +X+X+X5 7 L U L L ",
"L U T P   6 +X+X+X+Xq q 1 #.g.j.<.{ +.+.+.O.+.} b { j b m { B { j f +.q [ d t t +X+X+Xb.8 T L P I L ",
"Q Y Q U Q 6 5 +X+X+X+Xt q 2 q q +.+.w n J.J.;.{ s j 0 [ q B { +.+.+.{ { +.t t +X+X+X+X7   P W L I L ",
"Y P U P U P 6 7 +X+X+X+Xt q q q q J.R.J.] O.0 { { [ { { { d q n +.{ +.b t y +X+X+X%X7 7 Y U P P L L ",
"P L T E Y Y P 6 A +X+X+X+Xy q q D A.J.J.J.[ { [ { { b q w q q w q t y y a +X+X+X+X5 7 L U P L P U L ",
"U L L L U U T Y 6 5 oX+X+X+XM.y q A.J.J.J.R.{ j q w q q q w q q y y t /.+X+X+X+X6 7 L R ..! Y U P Q ",
"P U U P Y Y W w.Y 7 5 +X+X+X+X+Xx q 1 D V.<.q y y y 1 q y q y t q c.+X+X+X+X+X5 7 Y P Y Y U U Y U U ",
"P P T E P U P U P U 8 6  X+X+X+X+X+X}.> q q q t t y q t t q h |.+X+X+X+X+Xv.7 7 T U U U T U P P P U ",
"L Y T W P P L L L P L   7 5 %X+X+X+X+X+X+X+X+XoX~.L.'.+X+X+X+X+X+X+X+X+X6 8   P U L P L L P U Y L P ",
"L Y P Y P U P L L P L U L 8 7 8 +X+X+X+X+X+X+X+X+X+X+X+X+X+X+X+X+X+X6 6 7 Y Y U P Y L Y U U Y U P Y ",
"L Y U U Y Y Y Y P P P R U P U 7 7 7 H %X+X+X+X+X+X+X+X+X+X+X^.Z 7 7 5 U L L L P R P L W P L W Y Y P ",
"P U P ! P P I Y ! L P U L U Y U Y   8 7 7 7 5 3 4 3 5 6 8 7 7 7   L P P L R I L L P P R L Y Y U P P ",
"P Y Y U P ..Y Y Y L P Y U T Y Q U U E P U P   6 8 7 7     U U P L U U L L Y L U I T Q E R L T R L U ",
"P P U U L R U U P U U L Y Y U Y U L L I L E Y Y Y P L P U P P U U Y U U L P P Y L U P U Y P T U L L "
};
