/* XPM */
static char *_2e498026c8d42c898cbba786187b8a6tnLHV6ruuO9XG9cw[] = {
/* columns rows colors chars-per-pixel */
"50 50 158 2 ",
"   c #71A72A",
".  c #76AB2D",
"X  c #79AD2F",
"o  c #7BAE30",
"O  c #7DB132",
"+  c #83B334",
"@  c #89B537",
"#  c #8AB738",
"$  c #8DB83A",
"%  c #92BA3C",
"&  c #99BE3F",
"*  c #97BE40",
"=  c #98BE40",
"-  c #9DC042",
";  c #0A1EC7",
":  c #091ECC",
">  c #0A1FD0",
",  c #0B21CD",
"<  c #1226CB",
"1  c #1529CC",
"2  c #192DCE",
"3  c #0C23D3",
"4  c #0D24DB",
"5  c #0F28DC",
"6  c #1026D7",
"7  c #1026DC",
"8  c #1128DD",
"9  c #0E26E3",
"0  c #0F28E6",
"q  c #0E27E8",
"w  c #0F28EA",
"e  c #1027E5",
"r  c #1129E4",
"t  c #132BEB",
"y  c #0F2AF1",
"u  c #132DF4",
"i  c #142EFB",
"p  c #1630F5",
"a  c #1831F6",
"s  c #1631FE",
"d  c #1A35FE",
"f  c #1D3AFF",
"g  c #1F3CFF",
"h  c #203DFF",
"j  c #223EFF",
"k  c #3244D2",
"l  c #3345D3",
"z  c #3548D4",
"x  c #1F40FF",
"c  c #2441FF",
"v  c #2442FF",
"b  c #2544FF",
"n  c #2746FF",
"m  c #2846FF",
"M  c #2649FF",
"N  c #2B4CFF",
"B  c #2D4EFF",
"V  c #304FFF",
"C  c #2E51FE",
"Z  c #2F5AFE",
"A  c #3254FF",
"S  c #345BFF",
"D  c #395EFF",
"F  c #3662FF",
"G  c #3B64FF",
"H  c #3C6BFF",
"J  c #3E71FF",
"K  c #4F5CD7",
"L  c #515FD8",
"P  c #6C77DD",
"I  c #6D79DE",
"U  c #4067FF",
"Y  c #426CFF",
"T  c #4372FF",
"R  c #4A76FF",
"E  c #457BFF",
"W  c #4B7CFF",
"Q  c #4C83FF",
"!  c #4E8BFE",
"~  c #5184FF",
"^  c #548BFF",
"/  c #588DFE",
"(  c #5392FF",
")  c #5C94FF",
"_  c #569AFF",
"`  c #5C9AFF",
"'  c #629BFF",
"]  c #5AA3FF",
"[  c #5DABFE",
"{  c #5FB3FE",
"}  c #64A3FE",
"|  c #69A6FE",
" . c #64AAFE",
".. c #6AACFF",
"X. c #63B5FF",
"o. c #6CB3FF",
"O. c #65BCFF",
"+. c #6ABAFF",
"@. c #71B5FE",
"#. c #73BCFE",
"$. c #6FC5FE",
"%. c #67C8FF",
"&. c #6BCBFF",
"*. c #75C3FF",
"=. c #78C2FF",
"-. c #76CCFF",
";. c #7CCFFF",
":. c #6CD4FE",
">. c #6DDCFF",
",. c #72D4FF",
"<. c #7CD3FF",
"1. c #73DCFF",
"2. c #7BDCFF",
"3. c #6EE1FF",
"4. c #72E4FF",
"5. c #7BE4FF",
"6. c #7DEFFF",
"7. c #76F4FF",
"8. c #7BF6FF",
"9. c #7DFCFF",
"0. c #848EE3",
"q. c #8691E3",
"w. c #8892E5",
"e. c #A7AFEB",
"r. c #A7AEEC",
"t. c #A7B0EC",
"y. c #ACB4EC",
"u. c #81DDFF",
"i. c #85E4FF",
"p. c #88E7FF",
"a. c #85E8FF",
"s. c #87F4FF",
"d. c #8AF4FF",
"f. c #85FEFE",
"g. c #8CFEFF",
"h. c #94FFFF",
"j. c #9BFFFF",
"k. c #A3FFFF",
"l. c #ABFFFF",
"z. c #B3FFFF",
"x. c #BBFFFE",
"c. c #CACEF3",
"v. c #CFD4F4",
"b. c #CFD4F5",
"n. c #D0D4F5",
"m. c #C4FFFF",
"M. c #CBFFFF",
"N. c #D3FFFF",
"B. c #DBFFFF",
"V. c #ECEEFB",
"C. c #EFF1FB",
"Z. c #E4FFFF",
"A. c #EBFFFF",
"S. c #F3FFFF",
"D. c #F8F8FD",
"F. c #FAFAFE",
"G. c #FBFCFE",
"H. c #FDFDFF",
/* pixels */
"X O o O . X X o o + X O o o o X O o o H.F.c.y.e.e.r.r.y.c.F.H.o X O . . O O X o . . . X X X O X o O ",
". . O O o O o O O $ . o O o - O F.V.w., , , , , , , : , : : : q.V.F.. o O   o o o X o @ O X + = + o ",
"o X % $ X X X o O O o O + . F.I z : 3 3 3 5 5 5 5 5 5 5 4 3 3 3 : l P F.X @ O O o O . o X X o . X o ",
". X . . X X # + . o O o F.0.: 3 3 5 5 9 e r t t t t t q r 9 5 5 4 3 , : 0.F.. X X # X o o O o X + o ",
"  . X   X . . O o @ H.b.2 3 3 5 9 r t t u u u u u u u u u u t q 9 9 4 3 : 1 b.H.. . o @ . + o o O . ",
". - * . o o X O . H.L , 3 5 9 r t u i s s d d d d d d s s s i u u t e 9 4 3 : K H.o X X X o X X X . ",
"X % O o . o + O X l , 5 7 r t u a d d g g g g g h g g g g f d s s i u q 9 5 3 , l H.X o O # X O X O ",
"X O X O X @ @ C.1 3 5 r t u a d f g h h c c n n n n n n c h g g d s s i u q 9 4 3 < C.O $ - o # . O ",
"o o + O O O o 1 3 7 r t a d f g h c m N B B C C C C C B N M n c g g d s s u q 9 4 3 < H.O O X . O O ",
"o O + @ O H.l 3 5 r t a d g h c m B C A S D D F F F D S S A C N n c g f d s u w 9 4 3 l H.+ X o O o ",
"O O X X H.L 3 5 r t a d h c m N A S D G H Y Y T T T Y H H F F S C N n h g d s u w 9 4 : K H.O o . O ",
". O O . n., 5 r t a d g c m B A D G Y T R W Q Q Q Q Q W E T H G S A N M c g d s u t 9 3 : b.o # O + ",
"@ X @ F.2 3 8 t a d g c N C S G Y T W ~ / ( ) ` ` ` ` ( ^ Q W T H F S C M c g d i u q 4 3 1 F.@ . + ",
". O . q.3 5 r u d g c m A S G Y R ~ ( ` }  .o.+.+.+.+.X. .` ( ! E J G S C M c g s i y 9 4 : 0.X O o ",
"X O F., 3 r t d g h m V S G T W ^ ) } o.*.-.1.5.5.5.4.,.&.O.[ ` ! Q J G S C n g d s i w 9 3 : F.o . ",
"X X I 3 5 t a d h n B S G T W / ' ..#.<.5.s.g.g.g.g.f.f.8.4.&.O.] ( Q J F Z N n g d i u 9 4 : P @ . ",
"X G.z 3 r t d g c N A D Y R ^ ' ..*.2.s.g.h.j.j.j.j.h.h.g.f.8.,.%.] ( E J F Z M c f s i q 4 3 l F.X ",
"X V., 7 r a d h n B S Y R ^ ` ..*.i.g.h.j.k.l.l.l.l.k.k.j.h.f.9.1.%.] ! E H S C n g d i y 9 3 : V.. ",
"X w.3 8 t d g c N A G T ~ ) | =.u.g.h.k.l.x.x.x.x.x.x.z.l.j.h.f.9.>.X._ Q J F Z M x d s u q 4 : q.X ",
"H., 3 r u d h c B S U R ^ ' @.<.d.j.k.l.x.m.M.M.M.M.m.m.x.l.j.h.f.7.&.[ ! E H S N c f s i q 4 3 ; H.",
"F., 6 r u f h m A D Y W ) | =.a.h.k.z.x.M.N.B.B.B.B.N.M.m.x.l.j.g.9.4.X._ Q J F C n g d i w 9 3 : F.",
"c., 7 r a f h N A G R ^ ' o.<.g.j.l.x.m.N.B.Z.A.A.Z.Z.B.M.m.z.k.h.f.7.%.] ! J F Z M g d s y 9 3 : c.",
"y., 7 t d g c N S U R ^ ' #.u.h.k.z.m.N.B.Z.A.S.S.S.A.Z.N.M.x.l.j.g.9.:.[ ! E G S M x d s u 9 4 : y.",
"t., 8 t d g c N S U R / | #.i.h.k.x.m.N.Z.A.S.G.G.S.S.A.B.N.m.z.j.g.9.>.{ ( E H Z N c f s u 9 4 : e.",
"t., 8 t d g c B S U R / | =.i.j.l.x.M.B.Z.S.G.H.H.G.S.A.Z.N.m.z.k.g.9.3.X.( E H Z N c f s u 9 4 : e.",
"t.3 8 t d g c B S Y R / | =.p.j.l.x.M.B.Z.S.G.H.H.G.S.A.Z.N.m.z.k.g.9.3.X.( E H S N c f s u 9 4 : e.",
"t.3 8 t a g c B S U R / | #.i.h.k.x.m.N.Z.A.S.G.G.G.S.A.B.N.m.z.j.g.9.>.{ ( E H Z M c d s u 9 4 : e.",
"y., 7 t a g c N S G R ^ ' @.u.h.k.z.m.N.B.Z.A.S.S.S.A.Z.N.M.x.l.j.g.9.:.[ ! E G Z M c d s u 9 3 : y.",
"c., 7 r a g h N A G R ~ ' o.;.g.j.l.x.m.N.B.Z.A.A.A.Z.B.M.m.x.k.h.f.7.%.] ! J F Z M g d s y 9 3 : c.",
"F., 3 r p f h m V D Y W ) | =.i.h.k.z.x.M.N.B.B.B.B.N.M.m.x.l.j.g.9.1.X._ Q J F C n g d i t 9 3 : F.",
"H., 3 r t d h c B S U R ^ ' @.<.d.j.k.z.x.m.M.M.N.M.m.m.x.l.k.h.f.7.%.[ ! E H S N c f s i t 4 3 ; H.",
"o w.3 8 t d g c N S G T ~ ) | #.u.g.j.k.l.x.x.x.x.x.x.z.l.k.h.g.8.:.X._ Q T F Z M c d s u 9 4 , q.X ",
"X V., 7 r a f h m V S Y R ^ ' ..*.u.g.h.j.k.l.l.l.l.l.k.j.h.g.8.,.O.] ! E H S C n g d i u 9 3 : V.. ",
"o F.z 3 r t d h c N A D Y R / ' ..=.u.d.h.h.j.j.j.j.j.h.g.f.6.,.O.] ( W H F Z M c f s i q 5 3 l F.. ",
"X . I 3 8 r a d h n B S G Y W / ' | #.;.i.s.g.g.g.g.f.s.6.1.&.+.] ( Q T G S N c g d i u 9 4 , P @ . ",
"X o F., 3 r t d g h m V S U T W ^ ) } o.#.-.<.2.2.2.2.,.$.+. .` ^ Q T G S C n h d s u q 5 3 ; F.% X ",
"O + o q.3 7 r u d g c m A S G Y R ~ / ` }  ...o.o.o.o. .} ` ( Q W T G S C M c f s i t 9 3 : 0.o . . ",
". o + F.2 3 8 t a d h c N A S G Y R W ~ / ) ) ` ` ` ) ( / Q W T H G S C M c g d i u 9 5 3 1 F.X   . ",
"% O % o b., 3 r t a f h c N V S D G Y T R W Q ~ ~ Q Q W R T H G D Z N M c g d s u t 5 3 : b.$ .   . ",
"O X o X H.L , 7 r t d d g c m N A S D G H Y Y T T T Y H G G D S C N n h g d s u t 9 3 : K H.X . . . ",
"X . + # O H.l 3 7 r t d d g h c m B A A S D D G G G D D S A C N M c h f d i u t 9 4 : l H.X . X o . ",
"o . . . o o H.1 3 7 r t a s g h h c m N B C C A C A C B N N n c h g d s i u t 9 3 , < H.= & O o X % ",
"X o o X O O $ C.1 3 5 r t u d d g g h c c n n n n n n c c h h g d d s u t 0 5 3 > < C.O O o o O o o ",
"X X + # X o X o H.l , 3 7 r t u a d d g g g g h h h h g g f d s s i u t 9 5 3 : l H.o o + o X X X o ",
". O + $ X X . . . H.L , 3 5 r r t u a s s s d d d d d d s s i u u t 9 5 4 3 : K H.. X . . X o O . X ",
". O X O X o X . . X H.n.2 , 3 5 7 r t t u u u a a u u u u u t r 9 5 4 3 , 1 b.H.X O . O o o O o X O ",
". O o o O O O O X X X @ F.0.: , 3 5 5 7 e e r t t t r r r 9 5 5 3 3 , : 0.F.. X @ X . $ X . $ O O X ",
"X o X & X X   O & . X o . o F.I z , , 3 3 4 5 5 5 5 5 5 4 3 3 , : l P F.. @   . . X X @ . O O o X X ",
"X O O o X = O O O . X O o + O % F.V.w., , , , , , , , , , , ; q.V.F.o . . O . o   + % # @ . + @ . o ",
"X X o o . @ o o X o o . O O o O o . . H.F.c.y.r.e.e.t.y.c.F.H.o o o o o . X X O . o X o O X + o . . "
};
